<svg width="32" height="32" viewBox="0 0 32 32" fill="none" xmlns="http://www.w3.org/2000/svg">
<g clip-path="url(#clip0)">
<path d="M10.6613 28.4322C10.6613 29.3589 9.96667 29.7416 9.19733 29.3589L0.893333 25.2082C0.642667 25.0896 0.432 24.8909 0.26 24.6122C0.088 24.3336 0 24.0562 0 23.7829V3.48023C0 2.7229 0.454667 2.38023 1.48267 2.89223L10.608 7.45223C10.74 7.58423 10.6427 6.67756 10.6613 28.4322V28.4322ZM11.804 9.3389L21.34 24.7629L11.804 20.0256V9.3389ZM32 9.66023V28.4322C32 28.7296 31.9173 28.9696 31.7493 29.1536C31.5827 29.3376 31.356 29.4296 31.0707 29.4296C30.7853 29.4296 30.5053 29.3522 30.232 29.1976L22.3573 25.2789L32 9.66023ZM31.9467 7.5229C31.9467 7.5589 30.42 10.0496 27.3667 14.9936C24.3133 19.9376 22.524 22.8336 22 23.6762L15.036 12.3842L20.8213 2.9989C21.136 2.48157 21.7813 2.3909 22.2147 2.6069L31.876 7.41623C31.9227 7.4389 31.9467 7.4749 31.9467 7.5229V7.5229Z" fill="white"/>
</g>
<defs>
<clipPath id="clip0">
<rect width="32" height="32" fill="white"/>
</clipPath>
</defs>
</svg>
